<?xml version="1.0" encoding="UTF-8"?>
<svg viewBox="0 0 24 24" version="1.1" xmlns="http://www.w3.org/2000/svg" xmlns:xlink="http://www.w3.org/1999/xlink">
    <title>Iconly/Bold/Send</title>
    <g id="Iconly/Bold/Send" stroke="none" stroke-width="1" fill="none" fill-rule="evenodd">
        <g id="Send" transform="translate(2.000000, 2.000000)" fill="#0984f9" fill-rule="nonzero">
            <path d="M19.4353768,0.581982692 C18.935172,0.0685980979 18.1948689,-0.122662829 17.5045863,0.0786644625 L1.40799658,4.759524 C0.679698425,4.96185793 0.163487095,5.54268717 0.0244301664,6.28055169 C-0.11762799,7.03150249 0.378575149,7.98478722 1.02684054,8.38341526 L6.05990101,11.4768091 C6.57611234,11.7938996 7.2423851,11.7143753 7.66955998,11.2835349 L13.4329194,5.48430225 C13.7230382,5.18231131 14.2032348,5.18231131 14.4933536,5.48430225 C14.7834723,5.77622682 14.7834723,6.24934596 14.4933536,6.5513369 L8.71999001,12.3515762 C8.29181472,12.7814099 8.21178196,13.4508232 8.52691097,13.9702476 L11.6021699,19.0537617 C11.9623174,19.6577436 12.5825713,20 13.2628498,20 C13.3428826,20 13.4329194,20 13.5129522,19.9899336 C14.2932716,19.88927 14.9135256,19.3557527 15.1436198,18.6007753 L19.9155733,2.52479106 C20.1256593,1.84027827 19.9355815,1.09536729 19.4353768,0.581982692"></path>
        </g>
    </g>
</svg>