<?xml version="1.0" standalone="no"?>
<!DOCTYPE svg PUBLIC "-//W3C//DTD SVG 20010904//EN"
 "http://www.w3.org/TR/2001/REC-SVG-20010904/DTD/svg10.dtd">
<svg version="1.0" xmlns="http://www.w3.org/2000/svg"
viewBox="0 0 512.000000 512.000000"
 preserveAspectRatio="xMidYMid meet">

<g transform="translate(0.000000,512.000000) scale(0.100000,-0.100000)"
fill="#000000" stroke="none">
<path d="M2421 5105 c-178 -39 -348 -172 -429 -336 -95 -193 -95 -385 0 -578
82 -166 251 -297 434 -336 451 -96 855 308 759 759 -72 342 -420 565 -764 491z"/>
<path d="M2421 3185 c-178 -39 -348 -172 -429 -336 -95 -193 -95 -385 0 -578
82 -166 251 -297 434 -336 451 -96 855 308 759 759 -72 342 -420 565 -764 491z"/>
<path d="M2421 1265 c-178 -39 -348 -172 -429 -336 -95 -193 -95 -385 0 -578
82 -166 251 -297 434 -336 451 -96 855 308 759 759 -72 342 -420 565 -764 491z"/>
</g>
</svg>
