<?xml version="1.0" standalone="no"?>
<!DOCTYPE svg PUBLIC "-//W3C//DTD SVG 20010904//EN"
 "http://www.w3.org/TR/2001/REC-SVG-20010904/DTD/svg10.dtd">
<svg version="1.0" xmlns="http://www.w3.org/2000/svg"
 width="25px" height="25px" viewBox="0 0 150.000000 150.000000"
 preserveAspectRatio="xMidYMid meet">

<g transform="translate(0.000000,150.000000) scale(0.100000,-0.100000)"
fill="#ffffff" stroke="none">
<path d="M1218 1223 c-8 -10 -122 -182 -253 -383 -131 -201 -257 -393 -279
-427 l-42 -62 -189 164 c-197 170 -223 185 -259 149 -9 -8 -16 -28 -16 -43 0
-24 33 -56 227 -224 138 -119 236 -197 248 -197 12 0 28 6 37 13 30 23 628
949 628 972 0 48 -71 74 -102 38z"/>
</g>
</svg>
